<?xml version="1.0" encoding="UTF-8"?>
<svg version="1.1" xmlns="http://www.w3.org/2000/svg" width="500" height="500">
<path d="M0 0 C165 0 330 0 500 0 C500 165 500 330 500 500 C335 500 170 500 0 500 C0 335 0 170 0 0 Z " fill="#5B4563" transform="translate(0,0)"/>
<path d="M0 0 C3.3 0.33 6.6 0.66 10 1 C10.96747771 4.112514 11.25702664 5.48016155 9.78515625 8.45703125 C8.93244141 9.62298828 8.93244141 9.62298828 8.0625 10.8125 C7.49660156 11.60269531 6.93070312 12.39289063 6.34765625 13.20703125 C5.90292969 13.79871094 5.45820313 14.39039063 5 15 C5.495 15.804375 5.99 16.60875 6.5 17.4375 C8.56801984 22.34904711 9.13290952 26.89363518 7.2734375 31.9921875 C4.23160411 37.75435969 0.07406266 40.96957679 -6 43 C-9.38242412 43.32001378 -12.74183374 43.43940753 -16.13671875 43.55859375 C-17.08160156 43.70425781 -18.02648437 43.84992188 -19 44 C-19.66 44.99 -20.32 45.98 -21 47 C-15.95715182 49.48155968 -10.90295244 49.37668993 -5.4140625 49.47851562 C1.17230609 49.71962376 5.84862992 51.12327291 10.9375 55.5625 C14.04513155 59.57398517 13.42905022 64.17556859 13 69 C14.19496094 68.96519531 15.38992188 68.93039063 16.62109375 68.89453125 C37.15889713 68.46715499 37.15889713 68.46715499 45.4921875 76.2578125 C48.76477965 80.03909773 50.83350088 84.00201059 51.25 89 C51.1675 89.66 51.085 90.32 51 91 C51.79792969 91.22558594 52.59585937 91.45117188 53.41796875 91.68359375 C57.99983392 93.36744169 62.0645116 95.67457753 66.3125 98.0625 C75.94657318 103.40298348 85.69405752 108.48470339 95.5 113.5 C105.53879906 118.63834934 115.51069633 123.85867607 125.37695312 129.32324219 C135.61009198 134.95185068 146.03237627 140.2203969 156.44482422 145.50756836 C163.2892392 148.99136393 170.09884416 152.52606184 176.796875 156.28515625 C178.44187988 157.20760132 178.44187988 157.20760132 180.12011719 158.14868164 C185.46372855 161.58379566 190.59700623 166.60858392 192 173 C193.47034417 184.66939818 186.74102912 194.77330877 181.5 204.75 C180.87114888 205.95514228 180.24249016 207.16038497 179.61401367 208.36572266 C175.929382 215.41465994 172.15595558 222.41136346 168.3125 229.375 C162.7937432 239.37405832 157.57714704 249.5214885 152.375 259.6875 C151.95799835 260.50231842 151.5409967 261.31713684 151.11135864 262.15664673 C149.48197117 265.34089527 147.85274045 268.52522395 146.22380066 271.70970154 C141.88910337 280.17911494 137.47684034 288.60493531 133 297 C132.39075684 298.14484863 131.78151367 299.28969727 131.15380859 300.46923828 C129.43041382 303.70716229 127.70432763 306.94363992 125.97644043 310.1791687 C125.28772997 311.46905436 124.59949199 312.75919241 123.91174316 314.04959106 C122.9521256 315.84915203 121.98979479 317.64726536 121.02734375 319.4453125 C120.46781006 320.49219238 119.90827637 321.53907227 119.33178711 322.61767578 C118 325 118 325 117 326 C115.17554212 326.09752207 113.34725636 326.12371391 111.52019405 326.12304783 C109.72500046 326.1260344 109.72500046 326.1260344 107.89354032 326.12908131 C106.54840637 326.12622772 105.20327261 326.12328211 103.85813904 326.12025452 C102.44246926 326.12069009 101.02679956 326.12156475 99.6111303 326.12284368 C95.70263963 326.1250913 91.79417611 326.12106374 87.8856889 326.11606562 C83.67775986 326.11176511 79.46983247 326.11320726 75.26190186 326.1139679 C67.96528699 326.11449339 60.66868103 326.11134398 53.37206841 326.10573006 C42.82226607 326.09761843 32.27246805 326.09500018 21.72266293 326.09374207 C4.60815631 326.09155101 -12.50634557 326.08488949 -29.62084961 326.07543945 C-46.25040666 326.06626671 -62.87996242 326.0591852 -79.50952148 326.05493164 C-81.04593662 326.05453756 -81.04593662 326.05453756 -82.61339045 326.05413551 C-87.75165625 326.05283051 -92.88992206 326.0515668 -98.02818787 326.05032361 C-140.68546187 326.03994934 -183.34273069 326.02232958 -226 326 C-226.62901358 324.59462747 -227.25694126 323.1887689 -227.88442993 321.78271484 C-228.23422724 320.99988129 -228.58402454 320.21704773 -228.94442177 319.41049194 C-230.64840073 315.51932837 -232.21211323 311.57509694 -233.7734375 307.625 C-234.12948563 306.72785782 -234.48553375 305.83071564 -234.85237122 304.90638733 C-236.02896623 301.93852982 -237.20223877 298.96937438 -238.375 296 C-238.78473053 294.96422821 -239.19446106 293.92845642 -239.61660767 292.86129761 C-247.51210206 272.8944662 -255.25667829 252.87032543 -262.97119141 232.83300781 C-263.88571527 230.45767193 -264.8002658 228.08234631 -265.71484375 225.70703125 C-266.16047668 224.54964447 -266.60610962 223.39225769 -267.06524658 222.19979858 C-271.42983703 210.87135266 -275.83253584 199.55791838 -280.25 188.25 C-280.58687836 187.38738556 -280.92375671 186.52477112 -281.27084351 185.63601685 C-282.20615823 183.241545 -283.14195042 180.84726078 -284.078125 178.453125 C-284.48273705 177.41831245 -284.48273705 177.41831245 -284.89552307 176.3625946 C-285.96627395 173.62729968 -287.042615 170.89632953 -288.15942383 168.17944336 C-290.05128977 163.27421906 -289.75860521 158.19117786 -288.0546875 153.26953125 C-284.59250397 145.89878203 -280.44631229 142.35228391 -272.88671875 139.21875 C-272.28534592 138.96814819 -271.68397308 138.71754639 -271.06437683 138.45935059 C-263.56482269 135.36028988 -255.99278373 132.43771094 -248.42489624 129.51068115 C-243.8876923 127.75533239 -239.35382531 125.99141875 -234.8203125 124.2265625 C-233.90406601 123.86990509 -232.98781952 123.51324768 -232.04380798 123.14578247 C-223.4029279 119.77689607 -214.79246823 116.33435707 -206.1875 112.875 C-194.60411363 108.22296095 -183.00372818 103.61650325 -171.37564087 99.07720947 C-169.76025953 98.44632656 -168.14532383 97.81430132 -166.53085327 97.18109131 C-164.30184711 96.30737422 -162.07114411 95.43815094 -159.83984375 94.5703125 C-159.17394226 94.30857239 -158.50804077 94.04683228 -157.82196045 93.77716064 C-153.22922814 92 -153.22922814 92 -151 92 C-150.97421875 91.41992188 -150.9484375 90.83984375 -150.921875 90.2421875 C-150.40705069 83.15165265 -148.40259305 79.34798867 -143.25 74.3125 C-136.56851603 69.55836717 -130.61749297 68.55602836 -122.64648438 68.65942383 C-121.74798767 68.65898575 -120.84949097 68.65854767 -119.92376709 68.65809631 C-116.98020011 68.66017151 -114.03721638 68.68344228 -111.09375 68.70703125 C-109.04252432 68.71263172 -106.99129461 68.71689969 -104.94006348 68.71989441 C-99.56092097 68.73130762 -94.18202437 68.7607444 -88.80297852 68.79400635 C-83.30618617 68.82478335 -77.80935381 68.83841602 -72.3125 68.85351562 C-61.54155908 68.88561753 -50.77080005 68.93677111 -40 69 C-39.70561035 67.877146 -39.4112207 66.75429199 -39.10791016 65.59741211 C-38 62 -38 62 -36.2734375 60.44140625 C-34.515625 59.62760417 -32.7578125 58.81380208 -31 58 C-31.495 57.34 -31.99 56.68 -32.5 56 C-34.55875722 51.88248556 -34.50971845 49.58746602 -34 45 C-32.1875 42.5 -32.1875 42.5 -30 41 C-29.01 41 -28.02 41 -27 41 C-27.40992188 40.48050781 -27.81984375 39.96101563 -28.2421875 39.42578125 C-32.99291806 33.27710844 -35.69342464 29.04372577 -35 21 C-32.78222297 14.2299438 -29.79931037 10.42421054 -23.4375 7.1875 C-16.4502892 4.84957395 -8.68966956 4.93033444 -2 8 C-1.34 5.36 -0.68 2.72 0 0 Z " fill="#FE66C4" transform="translate(300,174)"/>
<path d="M0 0 C1.28444514 0.67108096 2.56911774 1.34172673 3.85400391 2.01196289 C13.61313844 7.1136587 23.31554803 12.32089772 33.00952148 17.54516602 C41.80974664 22.27674123 50.67287559 26.87645515 59.5625 31.4375 C69.24044294 36.40319727 78.85825207 41.45411681 88.37084961 46.73193359 C93.60894962 49.62222397 98.89523669 52.38873535 104.23828125 55.078125 C105.55780693 55.74595905 106.87730561 56.41384648 108.19677734 57.08178711 C110.75104343 58.37390488 113.31335125 59.64779254 115.88134766 60.91235352 C123.87627497 64.95157762 130.10547632 68.75228133 134.625 76.625 C138.47565505 89.76252901 131.17283464 100.6064675 125.1875 112 C124.55864888 113.20514228 123.92999016 114.41038497 123.30151367 115.61572266 C119.616882 122.66465994 115.84345558 129.66136346 112 136.625 C106.4812432 146.62405832 101.26464704 156.7714885 96.0625 166.9375 C95.64549835 167.75231842 95.2284967 168.56713684 94.79885864 169.40664673 C93.16947117 172.59089527 91.54024045 175.77522395 89.91130066 178.95970154 C85.57660337 187.42911494 81.16434034 195.85493531 76.6875 204.25 C76.07825684 205.39484863 75.46901367 206.53969727 74.84130859 207.71923828 C73.11791382 210.95716229 71.39182763 214.19363992 69.66394043 217.4291687 C68.97522997 218.71905436 68.28699199 220.00919241 67.59924316 221.29959106 C66.6396256 223.09915203 65.67729479 224.89726536 64.71484375 226.6953125 C64.15531006 227.74219238 63.59577637 228.78907227 63.01928711 229.86767578 C61.6875 232.25 61.6875 232.25 60.6875 233.25 C57.94373107 233.34787219 55.22514022 233.37993342 52.48094177 233.37025452 C51.61029069 233.37110894 50.73963962 233.37196337 49.84260517 233.37284368 C46.90212978 233.37450116 43.96171044 233.36897276 41.02124023 233.36352539 C38.92259726 233.36324355 36.82395419 233.36340119 34.72531128 233.3639679 C29.0086021 233.364256 23.29191371 233.35835728 17.57520938 233.35139394 C11.60808844 233.34516244 5.64096708 233.34455676 -0.32615662 233.34336853 C-11.63444629 233.34025461 -22.94272636 233.3320404 -34.25101179 233.32201904 C-47.12140551 233.31085979 -59.99179969 233.30534793 -72.86219704 233.30032361 C-99.3456367 233.28985784 -125.82906781 233.27225723 -152.3125 233.25 C-156.45812434 226.23190254 -157.71866613 221.53376073 -156.3125 213.25 C-154.57071822 208.58136339 -152.22074311 204.32327163 -149.80273438 199.98242188 C-148.02380649 196.7206655 -146.3279258 193.41907228 -144.640625 190.109375 C-138.755917 178.57813662 -132.83440634 167.07664144 -126.5625 155.75 C-120.4365749 144.6841599 -114.72840869 133.40833852 -108.98257446 122.14239502 C-104.18438521 112.73901976 -99.37476276 103.35603662 -94.25 94.125 C-88.84246054 84.38300113 -83.76216873 74.48049997 -78.6875 64.5625 C-78.06118179 63.3386409 -78.06118179 63.3386409 -77.42221069 62.09005737 C-75.7934094 58.90696525 -74.16474387 55.72380373 -72.53639221 52.54048157 C-69.02028678 45.67047318 -65.47004077 38.82014183 -61.8359375 32.01171875 C-60.0706302 28.70378863 -58.3468238 25.3762489 -56.63745117 22.03907776 C-55.32646203 19.48744553 -54.00091417 16.94352022 -52.67346191 14.40042114 C-52.02702168 13.154421 -51.38641787 11.90537164 -50.75231934 10.65304565 C-46.43762107 2.14257289 -42.18919982 -4.28425395 -33.875 -9.1875 C-21.21701604 -11.96608184 -10.90814012 -5.75236914 0 0 Z " fill="#5CE0E5" transform="translate(356.3125,266.75)"/>
<path d="M0 0 C3.3 0.33 6.6 0.66 10 1 C10.96747771 4.112514 11.25702664 5.48016155 9.78515625 8.45703125 C8.93244141 9.62298828 8.93244141 9.62298828 8.0625 10.8125 C7.49660156 11.60269531 6.93070313 12.39289063 6.34765625 13.20703125 C5.68056641 14.09455078 5.68056641 14.09455078 5 15 C5.495 15.804375 5.99 16.60875 6.5 17.4375 C8.56801984 22.34904711 9.13290952 26.89363518 7.2734375 31.9921875 C4.23160411 37.75435969 0.07406266 40.96957679 -6 43 C-9.38242412 43.32001378 -12.74183374 43.43940753 -16.13671875 43.55859375 C-17.08160156 43.70425781 -18.02648437 43.84992188 -19 44 C-19.66 44.99 -20.32 45.98 -21 47 C-15.95715182 49.48155968 -10.90295244 49.37668993 -5.4140625 49.47851562 C1.17230609 49.71962376 5.84862992 51.12327291 10.9375 55.5625 C14.04513155 59.57398517 13.42905022 64.17556859 13 69 C14.19496094 68.96519531 15.38992188 68.93039063 16.62109375 68.89453125 C37.15889713 68.46715499 37.15889713 68.46715499 45.4921875 76.2578125 C49.39629464 80.76877567 51.25870692 85.02904425 51 91 C50.19175781 90.57847656 49.38351562 90.15695312 48.55078125 89.72265625 C47.48214844 89.17480469 46.41351563 88.62695312 45.3125 88.0625 C44.25675781 87.51722656 43.20101562 86.97195313 42.11328125 86.41015625 C36.1375964 83.70347842 29.17710315 82.69232012 22.81640625 84.68359375 C14.02634894 88.68813782 10.48682614 96.42702327 6.3125 104.6875 C5.24249326 106.77099039 4.17217675 108.85432172 3.1015625 110.9375 C2.5746582 111.96875 2.04775391 113 1.50488281 114.0625 C-0.57320722 118.11888859 -2.68736188 122.15560861 -4.8125 126.1875 C-5.40732178 127.31877319 -5.40732178 127.31877319 -6.01416016 128.47290039 C-8.4400482 133.07621936 -10.89190183 137.66492934 -13.359375 142.24609375 C-21.04474534 156.51804088 -28.57649688 170.85751684 -35.9765625 185.27954102 C-36.67705499 186.64470856 -37.37757533 188.0098618 -38.078125 189.375 C-38.58466614 190.36215248 -38.58466614 190.36215248 -39.10144043 191.36924744 C-43.3361958 199.61354242 -47.65566491 207.8130098 -52 216 C-54.33872334 213.11965945 -55.7853224 210.42472301 -57.10620117 206.96411133 C-57.49536713 205.95409058 -57.88453308 204.94406982 -58.28549194 203.90344238 C-58.90794296 202.25934387 -58.90794296 202.25934387 -59.54296875 200.58203125 C-59.98387848 199.43303345 -60.42478821 198.28403564 -60.87905884 197.10021973 C-61.82725437 194.62712771 -62.77316675 192.15330369 -63.71524048 189.67788696 C-65.19446291 185.7914391 -66.68259885 181.90844638 -68.17260742 178.02612305 C-69.67833702 174.10193705 -71.18379765 170.17765192 -72.68641663 166.25227356 C-78.83948948 150.1795256 -85.07860731 134.14068877 -91.37988281 118.12548828 C-92.41404493 115.49600793 -93.44252895 112.86446774 -94.46386719 110.22998047 C-95.69296077 107.06504212 -96.93716948 103.90659416 -98.1875 100.75 C-98.51403564 99.89833252 -98.84057129 99.04666504 -99.17700195 98.16918945 C-101.77694403 91.70112425 -105.57956548 87.06599099 -111.87963867 83.72338867 C-120.94357251 80.63111049 -129.79488691 83.87868452 -138.125 87.5 C-140.14746392 88.34608101 -142.1708545 89.18995149 -144.1953125 90.03125 C-145.07203613 90.40830078 -145.94875977 90.78535156 -146.85205078 91.17382812 C-149 92 -149 92 -151 92 C-150.65395392 84.21396315 -148.95616859 79.88898294 -143.25 74.3125 C-136.56851603 69.55836717 -130.61749297 68.55602836 -122.64648438 68.65942383 C-121.74798767 68.65898575 -120.84949097 68.65854767 -119.92376709 68.65809631 C-116.98020011 68.66017151 -114.03721638 68.68344228 -111.09375 68.70703125 C-109.04252432 68.71263172 -106.99129461 68.71689969 -104.94006348 68.71989441 C-99.56092097 68.73130762 -94.18202437 68.7607444 -88.80297852 68.79400635 C-83.30618617 68.82478335 -77.80935381 68.83841602 -72.3125 68.85351562 C-61.54155908 68.88561753 -50.77080005 68.93677111 -40 69 C-39.70561035 67.877146 -39.4112207 66.75429199 -39.10791016 65.59741211 C-38 62 -38 62 -36.2734375 60.44140625 C-34.515625 59.62760417 -32.7578125 58.81380208 -31 58 C-31.495 57.34 -31.99 56.68 -32.5 56 C-34.55875722 51.88248556 -34.50971845 49.58746602 -34 45 C-32.1875 42.5 -32.1875 42.5 -30 41 C-29.01 41 -28.02 41 -27 41 C-27.40992188 40.48050781 -27.81984375 39.96101563 -28.2421875 39.42578125 C-32.99291806 33.27710844 -35.69342464 29.04372577 -35 21 C-32.78222297 14.2299438 -29.79931037 10.42421054 -23.4375 7.1875 C-16.4502892 4.84957395 -8.68966956 4.93033444 -2 8 C-1.34 5.36 -0.68 2.72 0 0 Z " fill="#8C52FE" transform="translate(300,174)"/>
<path d="M0 0 C2.09295645 1.91172279 3.90094661 3.7517901 5.75 5.875 C6.27585693 6.46144287 6.80171387 7.04788574 7.34350586 7.65209961 C11.27651571 12.07307297 15.01914032 16.63957989 18.72265625 21.25390625 C21.21826469 24.26319052 23.83765143 27.13938654 26.5 30 C30.76920779 34.58757439 34.75758739 39.33443004 38.6875 44.21875 C41.64176364 47.77185086 44.76913424 51.1402368 47.91625977 54.52172852 C50.88715628 57.7329905 53.69961077 61.02627815 56.4375 64.4375 C59.80346265 68.62237307 63.33176017 72.58314398 67 76.5 C71.44873824 81.25025298 75.62287587 86.13885957 79.69140625 91.22265625 C82.80063249 94.96319747 86.10222119 98.51077727 89.45922852 102.02954102 C91.65434423 104.3640543 92.97169569 105.91508707 94 109 C90.09113611 110.70600233 86.17182235 112.38652672 82.25 114.0625 C81.13882813 114.54783203 80.02765625 115.03316406 78.8828125 115.53320312 C77.27792969 116.21479492 77.27792969 116.21479492 75.640625 116.91015625 C74.65610352 117.33433838 73.67158203 117.75852051 72.65722656 118.19555664 C69.8251798 119.05292471 68.67672357 119.18849829 66 118 C63.93316894 115.87778136 62.0581132 113.78309227 60.1875 111.5 C59.65995117 110.87013184 59.13240234 110.24026367 58.58886719 109.59130859 C54.61148426 104.8177175 50.732505 99.96791158 47 95 C42.44365145 95.70191498 38.34731061 97.32957125 34.1015625 99.0546875 C33.34837738 99.35690216 32.59519226 99.65911682 31.81918335 99.9704895 C29.41947648 100.93462666 27.02226728 101.90481523 24.625 102.875 C23.02098545 103.51990973 21.41682021 104.16444479 19.8125 104.80859375 C16.85019851 106.00027845 13.88804537 107.19230725 10.92822266 108.39013672 C10.27154602 108.65582458 9.61486938 108.92151245 8.93829346 109.19525146 C7.0017314 109.99928115 5.09124678 110.8514292 3.17724609 111.70751953 C0 113 0 113 -3 113 C-2.90912109 113.8521106 -2.90912109 113.8521106 -2.81640625 114.72143555 C-1.6822778 125.50983243 -0.63732005 136.13975049 -1 147 C-6.1538001 149.73466944 -11.40930413 152.06170892 -16.8125 154.25 C-17.47064697 154.52021973 -18.12879395 154.79043945 -18.80688477 155.06884766 C-21.69774833 156.2240045 -23.85657667 157 -27 157 C-28.83331771 133.71635265 -30.07228733 110.40318285 -31.28710938 87.08056641 C-31.56821825 81.68895327 -31.85710443 76.29778674 -32.1478672 70.90668678 C-32.37490614 66.67349588 -32.59662659 62.44003774 -32.81696701 58.20649338 C-32.9211414 56.22057654 -33.02712053 54.23475332 -33.13515091 52.24904251 C-33.88101651 38.48771765 -34.134201 24.78118983 -34 11 C-32.97116196 10.55637477 -32.97116196 10.55637477 -31.92153931 10.10378742 C-31.02140106 9.71563453 -30.12126282 9.32748163 -29.19384766 8.92756653 C-28.30170563 8.54287107 -27.4095636 8.1581756 -26.49038696 7.7618227 C-24.62602923 6.95756141 -22.7621197 6.15226098 -20.8984375 5.34643555 C-18.27129594 4.21714085 -15.63673211 3.10669725 -13 2 C-12.24203125 1.67080566 -11.4840625 1.34161133 -10.703125 1.00244141 C-3.97292915 -1.77597826 -3.97292915 -1.77597826 0 0 Z " fill="#FFFDFE" transform="translate(125,303)"/>
<path d="M0 0 C5.45593671 1.60676453 10.3302147 4.05030894 15.375 6.625 C16.20644531 7.04523438 17.03789062 7.46546875 17.89453125 7.8984375 C19.93156359 8.92866075 21.96662189 9.96258821 24 11 C23.37772294 15.4772037 21.61431353 19.14376351 19.5703125 23.1171875 C19.22048309 23.8102298 18.87065369 24.50327209 18.51022339 25.21731567 C17.3874907 27.43947291 16.25679134 29.6574448 15.125 31.875 C13.66575967 34.74562596 12.21038753 37.61818327 10.7578125 40.4921875 C10.18650352 41.62185188 10.18650352 41.62185188 9.60365295 42.77433777 C6.63179338 48.67887119 3.77472185 54.63344378 0.94140625 60.60546875 C-5.87248462 74.94737705 -13.00676452 89.12807175 -20.12573242 103.32012939 C-21.92454648 106.90731373 -23.72094273 110.49570851 -25.51757812 114.08398438 C-29.00943141 121.05713728 -32.50383731 128.02900654 -36 135 C-39.64826977 134.32379256 -42.5503463 133.40337189 -45.86328125 131.71484375 C-46.74951172 131.26689453 -47.63574219 130.81894531 -48.54882812 130.35742188 C-49.9168457 129.65456055 -49.9168457 129.65456055 -51.3125 128.9375 C-52.24384766 128.46505859 -53.17519531 127.99261719 -54.13476562 127.50585938 C-56.42598769 126.34262356 -58.7142124 125.17386868 -61 124 C-59.73872966 119.98069278 -58.25841619 116.28735677 -56.34765625 112.53515625 C-55.81720703 111.48521484 -55.28675781 110.43527344 -54.74023438 109.35351562 C-54.18658203 108.26748047 -53.63292969 107.18144531 -53.0625 106.0625 C-48.9809222 98.03624204 -45.02076993 89.9668144 -41.16015625 81.83203125 C-34.20651099 67.21128413 -26.94754515 52.7429838 -19.69873047 38.26708984 C-17.73346827 34.34237185 -15.77192368 30.41580839 -13.81134605 26.48874855 C-12.28926633 23.44099302 -10.76530037 20.39418385 -9.24074173 17.34766769 C-8.51528853 15.89742761 -7.7904278 14.446891 -7.06617355 12.99605179 C-6.06606104 10.99330437 -5.06341843 8.9918447 -4.06005859 6.99072266 C-3.49145111 5.85430328 -2.92284363 4.71788391 -2.33700562 3.54702759 C-1 1 -1 1 0 0 Z " fill="#FDFEFE" transform="translate(378,320)"/>
<path d="M0 0 C6.27 0 12.54 0 19 0 C19.60328125 1.83304688 20.2065625 3.66609375 20.828125 5.5546875 C21.63525416 7.99484542 22.44255494 10.43494659 23.25 12.875 C23.64574219 14.07898438 24.04148438 15.28296875 24.44921875 16.5234375 C26.5002265 22.71008383 28.6605109 28.79860793 31.13378906 34.82861328 C32.33478844 37.83923573 33.31073419 40.89893191 34.25 44 C34.58515625 45.093125 34.9203125 46.18625 35.265625 47.3125 C36 50 36 50 36 52 C36.66 52 37.32 52 38 52 C38.26039063 50.74058594 38.52078125 49.48117188 38.7890625 48.18359375 C40.00823568 42.70588506 41.65599981 37.40103292 43.375 32.0625 C43.81199219 30.67514648 43.81199219 30.67514648 44.2578125 29.25976562 C46.00171063 23.80243529 47.96138863 18.491802 50.12988281 13.18969727 C51.14171506 10.64336633 51.95456162 8.07692549 52.6875 5.4375 C53.8982684 1.1017316 53.8982684 1.1017316 55 0 C60.94 0 66.88 0 73 0 C73 23.43 73 46.86 73 71 C68.71 71 64.42 71 60 71 C60 55.49 60 39.98 60 24 C59.34 24 58.68 24 58 24 C57.90203125 24.58265625 57.8040625 25.1653125 57.703125 25.765625 C56.18551743 34.08630097 53.54971298 41.90522095 50.5703125 49.8046875 C48.9209433 54.18115942 47.36122804 58.58708109 45.8125 63 C45.40354492 64.16208984 45.40354492 64.16208984 44.98632812 65.34765625 C44.32348918 67.23151429 43.66163914 69.11572024 43 71 C38.71 71 34.42 71 30 71 C28.72555701 67.54295986 27.45537273 64.08444958 26.1875 60.625 C25.65286133 59.17673828 25.65286133 59.17673828 25.10742188 57.69921875 C23.10471824 52.22393725 21.2603953 46.74620266 19.66162109 41.13891602 C19.03714636 39.12008828 18.29619201 37.24149597 17.4375 35.3125 C16 32 16 32 14 25 C13.67 40.18 13.34 55.36 13 71 C8.71 71 4.42 71 0 71 C0 47.57 0 24.14 0 0 Z " fill="#FCFCFD" transform="translate(107,164)"/>
<path d="M0 0 C3.3 0.33 6.6 0.66 10 1 C10.96747771 4.112514 11.25702664 5.48016155 9.78515625 8.45703125 C9.21667969 9.23433594 8.64820313 10.01164063 8.0625 10.8125 C7.49660156 11.60269531 6.93070312 12.39289063 6.34765625 13.20703125 C5.90292969 13.79871094 5.45820313 14.39039063 5 15 C5.495 15.804375 5.99 16.60875 6.5 17.4375 C8.56801984 22.34904711 9.13290952 26.89363518 7.2734375 31.9921875 C4.23160411 37.75435969 0.07406266 40.96957679 -6 43 C-9.38242412 43.32001378 -12.74183374 43.43940753 -16.13671875 43.55859375 C-17.08160156 43.70425781 -18.02648437 43.84992188 -19 44 C-19.66 44.99 -20.32 45.98 -21 47 C-15.95715182 49.48155968 -10.90295244 49.37668993 -5.4140625 49.47851562 C1.15398855 49.71895321 5.81534799 51.14072169 10.9375 55.5 C14.19806597 59.80437752 13.68786763 64.87920762 13 70 C11.33492468 74.99522596 8.49140516 78.29364048 4 81 C-5.73154986 85.71489819 -19.07716217 85.66499762 -29.25 82.375 C-33.96839241 80.3066636 -36.54186274 78.57722111 -39 74 C-39.66493396 70.51887517 -39.73633772 67.47296294 -39 64 C-36.56543724 60.84164831 -34.30027757 59.20018505 -31 57 C-31.495 56.505 -31.99 56.01 -32.5 55.5 C-34.59411977 52.00980038 -34.7501641 48.97913133 -34 45 C-32.1875 42.5 -32.1875 42.5 -30 41 C-29.01 41 -28.02 41 -27 41 C-27.40992188 40.48050781 -27.81984375 39.96101563 -28.2421875 39.42578125 C-32.99291806 33.27710844 -35.69342464 29.04372577 -35 21 C-32.78222297 14.2299438 -29.79931037 10.42421054 -23.4375 7.1875 C-16.4502892 4.84957395 -8.68966956 4.93033444 -2 8 C-1.34 5.36 -0.68 2.72 0 0 Z " fill="#FAF8FC" transform="translate(300,174)"/>
<path d="M0 0 C6.6 0 13.2 0 20 0 C24.03339535 11.55283463 28.06490482 23.10631991 32.09214783 34.66130066 C33.83079082 39.64915316 35.57155059 44.63624816 37.31687927 49.62176514 C38.35932803 52.60122801 39.3981276 55.58196282 40.4375 58.5625 C40.8080249 59.61743652 41.1785498 60.67237305 41.56030273 61.75927734 C42.05445679 63.17974365 42.05445679 63.17974365 42.55859375 64.62890625 C42.84017334 65.43400635 43.12175293 66.23910645 43.41186523 67.06860352 C44 69 44 69 44 71 C38.72 71 33.44 71 28 71 C26.35 66.05 24.7 61.1 23 56 C14.75 56 6.5 56 -2 56 C-5.90902715 64.4060008 -5.90902715 64.4060008 -8 71 C-13.28 71 -18.56 71 -24 71 C-16.13694179 47.28535104 -8.14285238 23.62004698 0 0 Z " fill="#FBF9FC" transform="translate(214,164)"/>
<path d="M0 0 C3.63 0 7.26 0 11 0 C11 20.79 11 41.58 11 63 C7.37 63 3.74 63 0 63 C0 61.02 0 59.04 0 57 C-0.66 57 -1.32 57 -2 57 C-2.185625 57.598125 -2.37125 58.19625 -2.5625 58.8125 C-4.6649014 62.01180648 -7.43358931 63.02797826 -11 64 C-17.15949959 65.00242836 -20.97221527 63.57746221 -26 60 C-31.64704316 54.04771126 -32.36273718 48.56636145 -32.375 40.6875 C-32.39949219 39.87087891 -32.42398437 39.05425781 -32.44921875 38.21289062 C-32.48127293 31.50822568 -30.96803524 26.06566798 -26.21875 21.16015625 C-25.6515625 20.79792969 -25.084375 20.43570313 -24.5 20.0625 C-23.9328125 19.68222656 -23.365625 19.30195312 -22.78125 18.91015625 C-18.50248109 16.72385547 -13.72821867 16.31673141 -9 17 C-5.6875 18.875 -5.6875 18.875 -3 21 C-2.01 21.66 -1.02 22.32 0 23 C0 15.41 0 7.82 0 0 Z " fill="#FBFBFC" transform="translate(441,68)"/>
<path d="M0 0 C5.2447645 2.65057991 8.73618422 6.49995706 11.32421875 11.73828125 C13.48982828 18.50948572 13.24618212 26.82267129 10.625 33.4375 C7.81916166 38.76165262 3.80037309 42.10068121 -1.5 44.8125 C-8.23314487 46.08290469 -15.13821752 46.91926348 -21.25 43.3125 C-26.24512501 39.63625415 -29.88988138 35.4161693 -31.8125 29.4375 C-32.5828063 21.43885436 -33.13093224 12.98445899 -27.8125 6.4375 C-20.16326177 -1.62863983 -10.59091317 -4.17543615 0 0 Z " fill="#FAF9FA" transform="translate(163.8125,86.5625)"/>
<path d="M0 0 C1.26171875 2.140625 1.26171875 2.140625 2 4 C0.35 6.31 -1.3 8.62 -3 11 C-3.556875 10.71125 -4.11375 10.4225 -4.6875 10.125 C-9.36605698 7.84894525 -12.86009763 6.73992616 -18.125 6.8125 C-19.15882812 6.81894531 -20.19265625 6.82539062 -21.2578125 6.83203125 C-24.09166977 6.88742622 -24.09166977 6.88742622 -27 8 C-27.40316922 12.31925181 -27.40316922 12.31925181 -25.5078125 16.078125 C-22.08117827 18.70414376 -18.81122836 19.22317412 -14.625 20 C-7.60366213 21.31650085 -2.70647231 23.15108178 2.375 28.5 C5.21235585 34.61122799 4.95429369 41.08410262 2.875 47.4375 C-0.90879516 52.60868672 -4.87773146 55.31600193 -11 57 C-19.66174862 57.83683142 -28.18874483 57.63265911 -35.328125 52.2421875 C-37.28593315 50.55135319 -39.16625049 48.82375632 -41 47 C-39.38617243 43.59787701 -37.41396234 40.89675481 -35 38 C-32 39 -32 39 -30.1875 40.875 C-26.5521199 44.4065121 -22.99771915 46.16534874 -17.9375 46.375 C-12.88638184 45.93270129 -12.88638184 45.93270129 -9 43 C-8.57531903 40.203724 -8.76602166 37.85453575 -9 35 C-13.59167384 32.81348865 -18.06538757 31.44482662 -23 30.1875 C-29.98317485 28.24112573 -34.5098794 25.89758007 -38.4375 19.75 C-39.6099071 14.01823198 -39.94868968 8.97035549 -37.375 3.625 C-28.48011642 -6.20618711 -11.0376984 -7.52887217 0 0 Z " fill="#FBFAFB" transform="translate(85,75)"/>
<path d="M0 0 C0.75539063 -0.01546875 1.51078125 -0.0309375 2.2890625 -0.046875 C8.91862109 -0.00131102 14.07208881 1.95992779 19.09375 6.31640625 C19.5578125 6.89261719 20.021875 7.46882813 20.5 8.0625 C21.22703125 8.93068359 21.22703125 8.93068359 21.96875 9.81640625 C23 11.5 23 11.5 23 14.5 C16.375 18.5 16.375 18.5 13 18.5 C12.79375 17.71625 12.5875 16.9325 12.375 16.125 C11.22075939 13.32542807 11.22075939 13.32542807 8.5625 12.1875 C0.15417283 10.55623594 0.15417283 10.55623594 -7.97265625 12.48046875 C-11.44241923 15.25116401 -13.70198635 18.2648976 -14.29052734 22.67895508 C-14.33990449 25.22400195 -14.37130811 27.76693873 -14.375 30.3125 C-14.39949219 31.18970703 -14.42398437 32.06691406 -14.44921875 32.97070312 C-14.47622589 38.98879399 -13.69537011 42.67583937 -10 47.5 C-4.90804964 50.52334553 1.2687561 50.27792507 7 49.5 C10.90228257 46.7684022 12.58226976 44.01095985 14 39.5 C17.48670834 40.6094072 20.77484237 41.76337666 24 43.5 C23.27225889 49.68579947 19.72994868 54.58089966 15 58.5 C6.87318306 62.58357427 -2.27926494 63.14809909 -11.05078125 60.62109375 C-18.3584509 57.26111818 -22.87557843 52.28180315 -26.375 45.125 C-29.50059869 36.53617 -29.51135929 25.54696737 -26.4375 16.9375 C-20.94453653 5.62392261 -12.56179898 -0.2572382 0 0 Z " fill="#F9F7F9" transform="translate(296,70.5)"/>
<path d="M0 0 C3.71067662 2.61888139 5.60836356 5.16493444 7.03125 9.43359375 C5.79390016 10.46972408 4.54080363 11.48707177 3.28125 12.49609375 C2.58515625 13.06457031 1.8890625 13.63304687 1.171875 14.21875 C-0.96875 15.43359375 -0.96875 15.43359375 -3.09375 15.27734375 C-4.96875 14.43359375 -4.96875 14.43359375 -7.21875 11.87109375 C-9.85621436 9.07195593 -9.85621436 9.07195593 -13.90625 8.93359375 C-17.84423784 9.223918 -20.74143051 10.0515246 -23.96875 12.43359375 C-26.9662704 19.10988918 -27.03390995 27.0383799 -24.65625 33.93359375 C-23.24660032 37.61566726 -23.24660032 37.61566726 -19.96875 39.43359375 C-15.13623805 40.0680915 -10.51538298 40.48983091 -6.40625 37.68359375 C-5.10081798 35.64030885 -3.92402986 33.6625801 -2.96875 31.43359375 C0.62516114 32.76847503 3.78615696 34.39382098 7.03125 36.43359375 C6.48960393 42.25628901 4.7956554 45.12569566 0.328125 48.85546875 C-6.80474512 53.70146448 -14.72972255 53.33473738 -22.96875 52.43359375 C-30.728403 50.52916672 -35.5685017 44.28973036 -39.63671875 37.75390625 C-41.35923889 33.46023434 -41.50451728 29.77040749 -41.46875 25.18359375 C-41.46302979 24.33966064 -41.45730957 23.49572754 -41.45141602 22.6262207 C-41.20574358 14.04588347 -38.9508822 7.97310689 -32.65625 1.99609375 C-22.95371699 -5.33794083 -10.59391808 -6.07086539 0 0 Z " fill="#F9F8FA" transform="translate(392.96875,183.56640625)"/>
<path d="M0 0 C3.71351979 2.76133523 5.9706485 5.4119455 7.4375 9.8125 C7.52041953 11.8045303 7.54488177 13.79923713 7.53515625 15.79296875 C7.53193359 16.95634766 7.52871094 18.11972656 7.52539062 19.31835938 C7.51282227 21.14077148 7.51282227 21.14077148 7.5 23 C7.49548828 24.22654297 7.49097656 25.45308594 7.48632812 26.71679688 C7.47453065 29.74874668 7.45806921 32.78059906 7.4375 35.8125 C9.0875 35.8125 10.7375 35.8125 12.4375 35.8125 C12.53515625 41.96484375 12.53515625 41.96484375 12.4375 43.8125 C10.78784831 45.46215169 8.8898645 45.06199498 6.625 45.125 C3.01483765 45.09917623 1.81744002 45.08388573 -1.1875 42.9375 C-2.5625 40.8125 -2.5625 40.8125 -2.5625 38.8125 C-3.2225 38.8125 -3.8825 38.8125 -4.5625 38.8125 C-4.81 39.410625 -5.0575 40.00875 -5.3125 40.625 C-6.78902524 43.20891917 -8.03210287 44.2539855 -10.5625 45.8125 C-15.86487032 46.70156814 -20.32635748 46.44141461 -25.125 44 C-28.01013764 41.41077391 -29.41974991 39.75869307 -30.00390625 35.88671875 C-30.32171373 26.99836121 -30.32171373 26.99836121 -28.20703125 23.6953125 C-22.56155528 18.68541992 -15.85247485 17.58243566 -8.63671875 16.27734375 C-6.58301494 16.01146867 -6.58301494 16.01146867 -5.5625 14.8125 C-5.52186168 13.14632885 -5.519779 11.47861905 -5.5625 9.8125 C-8.73337015 8.22706493 -11.04240484 8.47184563 -14.5625 8.8125 C-16.73649333 10.04321503 -18.68906257 11.39058686 -20.66796875 12.9140625 C-22.5625 13.8125 -22.5625 13.8125 -24.67578125 13.1484375 C-26.5625 11.8125 -26.5625 11.8125 -28.5625 8.8125 C-28.4296875 6.79296875 -28.4296875 6.79296875 -27.5625 4.8125 C-25.8203125 3.36328125 -25.8203125 3.36328125 -23.6875 2.125 C-22.98882812 1.70863281 -22.29015625 1.29226562 -21.5703125 0.86328125 C-15.15449862 -2.49441123 -6.74688658 -2.24896219 0 0 Z " fill="#F8F7F9" transform="translate(355.5625,86.1875)"/>
<path d="M0 0 C3.63 0 7.26 0 11 0 C14.0472587 6.57317972 16.51617451 13.17407246 18.75 20.0625 C19.06582031 21.02349609 19.38164062 21.98449219 19.70703125 22.97460938 C20.47554137 25.31507203 21.23977744 27.65683509 22 30 C24.75762582 27.24237418 25.3655069 24.02430321 26.4375 20.375 C26.87860576 18.91878443 27.32129699 17.46304811 27.765625 16.0078125 C28.08370117 14.96415527 28.08370117 14.96415527 28.40820312 13.89941406 C29.91279798 9.07031012 31.73551089 4.52897822 34 0 C37.63 0 41.26 0 45 0 C42.98198893 10.09005534 39.24048064 19.67340793 35.18359375 29.1015625 C33.97730838 32.05556827 32.97243711 35.02412221 32 38.0625 C25.629531 57.53065326 25.629531 57.53065326 17.26171875 63.171875 C14.08224685 64.33603397 11.24956975 64.22624767 7.875 64.1875 C6.63492188 64.18105469 5.39484375 64.17460937 4.1171875 64.16796875 C1 64 1 64 -1 63 C-0.67 59.7 -0.34 56.4 0 53 C1.24716797 53.05220703 1.24716797 53.05220703 2.51953125 53.10546875 C3.60621094 53.13253906 4.69289062 53.15960938 5.8125 53.1875 C6.89144531 53.22230469 7.97039062 53.25710937 9.08203125 53.29296875 C11.95360432 53.23214495 11.95360432 53.23214495 13.82421875 51.80078125 C15.40673724 49.37705692 15.84893226 47.91928191 16 45 C15.20960814 42.32416429 14.36239535 39.88025792 13.3125 37.3125 C13.03212891 36.59771484 12.75175781 35.88292969 12.46289062 35.14648438 C11.65428743 33.09244637 10.82991389 31.04550296 10 29 C9.64292969 28.10667969 9.28585938 27.21335937 8.91796875 26.29296875 C8.30670773 24.76611675 7.69343015 23.2400705 7.078125 21.71484375 C5.6061881 18.00833597 4.17028033 14.28907666 2.75 10.5625 C2.47929687 9.86318359 2.20859375 9.16386719 1.9296875 8.44335938 C0.81006198 5.48558578 0 3.19050081 0 0 Z " fill="#FAF9FA" transform="translate(217,86)"/>
<path d="M0 0 C4.23232866 0.48424813 5.95541633 2.76895963 8.6875 5.875 C9.12465332 6.36895264 9.56180664 6.86290527 10.01220703 7.37182617 C13.63882896 11.50108978 17.11477081 15.75125349 20.56640625 20.02734375 C23.92145302 24.125563 27.37646467 28.13465979 30.83935547 32.1418457 C39 41.60170411 39 41.60170411 39 44 C34.82133055 45.69626135 30.64038873 47.3867488 26.45727539 49.07202148 C25.03574383 49.64565033 23.61483619 50.22082791 22.19458008 50.79760742 C20.14828548 51.62830985 18.09978201 52.45334272 16.05078125 53.27734375 C15.4203743 53.53466782 14.78996735 53.79199188 14.14045715 54.05711365 C10.77178763 55.40500535 7.56048879 56.34136823 4 57 C3.42570821 50.16851294 2.8565994 43.336608 2.29101562 36.50439453 C2.09818646 34.18235603 1.90419055 31.8604141 1.70898438 29.53857422 C1.42788515 26.19263289 1.1510454 22.84636161 0.875 19.5 C0.78750488 18.4694751 0.70000977 17.4389502 0.60986328 16.37719727 C0.16208206 10.89525594 -0.09166878 5.50012656 0 0 Z " fill="#FF68C4" transform="translate(116,335)"/>
<path d="M0 0 C4.95 0 9.9 0 15 0 C15 23.43 15 46.86 15 71 C10.05 71 5.1 71 0 71 C0 47.57 0 24.14 0 0 Z " fill="#F8F6F9" transform="translate(323,164)"/>
<path d="M0 0 C1.8871875 0.0309375 1.8871875 0.0309375 3.8125 0.0625 C3.8125 3.3625 3.8125 6.6625 3.8125 10.0625 C8.1025 10.0625 12.3925 10.0625 16.8125 10.0625 C16.8125 13.0325 16.8125 16.0025 16.8125 19.0625 C12.5225 19.0625 8.2325 19.0625 3.8125 19.0625 C3.92615321 22.83399214 4.05291037 26.60424717 4.1875 30.375 C4.2184375 31.44685547 4.249375 32.51871094 4.28125 33.62304688 C4.31992188 34.65107422 4.35859375 35.67910156 4.3984375 36.73828125 C4.44556885 38.1600769 4.44556885 38.1600769 4.49365234 39.6105957 C4.6614051 42.3155269 4.6614051 42.3155269 6.8125 45.0625 C10.22839896 45.35321481 12.55092267 45.14969244 15.8125 44.0625 C17.12876692 47.68223402 17.8125 50.15817131 17.8125 54.0625 C12.24105981 56.34821905 6.60599261 57.28314213 0.78515625 55.41015625 C-3.04925071 53.52132576 -5.0519796 51.30717888 -6.61621094 47.37866211 C-7.88403001 42.23857683 -7.4868465 36.88178558 -7.375 31.625 C-7.36146484 30.41650391 -7.34792969 29.20800781 -7.33398438 27.96289062 C-7.29879946 24.99562918 -7.24956696 22.02930063 -7.1875 19.0625 C-9.4975 19.0625 -11.8075 19.0625 -14.1875 19.0625 C-14.1875 16.0925 -14.1875 13.1225 -14.1875 10.0625 C-11.8775 10.0625 -9.5675 10.0625 -7.1875 10.0625 C-7.1875 7.0925 -7.1875 4.1225 -7.1875 1.0625 C-4.43671116 0.14557039 -2.82801087 -0.04636083 0 0 Z " fill="#FCFCFD" transform="translate(108.1875,75.9375)"/>
<path d="M0 0 C3.96 0 7.92 0 12 0 C12.33 1.65 12.66 3.3 13 5 C13.61875 4.175 14.2375 3.35 14.875 2.5 C16.80907007 0.50986993 17.76250807 0.03081956 20.55859375 -0.33203125 C23.0555153 -0.31432259 25.51289435 -0.21731991 28 0 C29.41687119 4.25061356 28.19320039 6.71851625 27 11 C26.39671875 10.95359375 25.7934375 10.9071875 25.171875 10.859375 C19.97699408 10.53165845 19.97699408 10.53165845 15.5 12.875 C12.92547492 16.52224386 12.82417627 18.86183831 12.68359375 23.3203125 C12.64169922 24.57714844 12.59980469 25.83398438 12.55664062 27.12890625 C12.51732422 28.44761719 12.47800781 29.76632813 12.4375 31.125 C12.39430488 32.46485751 12.35069027 33.80470156 12.30664062 35.14453125 C12.20029019 38.42957815 12.09826192 41.71470281 12 45 C8.04 45 4.08 45 0 45 C0 30.15 0 15.3 0 0 Z " fill="#F8F6F8" transform="translate(186,86)"/>
<path d="M0 0 C3.63 0 7.26 0 11 0 C11.33 1.65 11.66 3.3 12 5 C12.61875 4.175 13.2375 3.35 13.875 2.5 C15.80907007 0.50986993 16.76250807 0.03081956 19.55859375 -0.33203125 C22.0555153 -0.31432259 24.51289435 -0.21731991 27 0 C28.231394 3.69418201 27.64432764 6.2056261 27 10 C24 11 24 11 20.5625 10.8125 C16.96304462 10.65808354 16.96304462 10.65808354 14.625 12.875 C11.86859779 16.47952597 11.82590152 18.8071233 11.68359375 23.3203125 C11.64169922 24.57714844 11.59980469 25.83398438 11.55664062 27.12890625 C11.51732422 28.44761719 11.47800781 29.76632813 11.4375 31.125 C11.39430488 32.46485751 11.35069027 33.80470156 11.30664062 35.14453125 C11.20029019 38.42957815 11.09826192 41.71470281 11 45 C7.37 45 3.74 45 0 45 C0 30.15 0 15.3 0 0 Z " fill="#FDFDFD" transform="translate(376,86)"/>
<path d="M0 0 C3.57388257 2.17540678 5.429407 4.16692281 7 8 C7.75117677 13.91185875 7.43380089 18.9719344 4 24 C1.55163168 26.72040925 -0.45564102 27.23365004 -4 27.4375 C-6.98184055 27.315566 -7.8588079 27.1003207 -10.375 25.3125 C-14.06360501 20.06333134 -14.71076924 15.30000012 -14 9 C-11.91054202 1.42929267 -7.84532157 -1.25647728 0 0 Z " fill="#58445E" transform="translate(434,95)"/>
<path d="M0 0 C3.16872216 0.68885264 4.96142228 2.13674555 7.15625 4.46875 C9.47701756 9.11028511 8.58625478 15.41762723 8.15625 20.46875 C6.9345319 23.76333577 5.37117885 25.86128558 2.15625 27.46875 C-2.22311569 27.98446681 -5.69421515 28.30216277 -9.34375 25.65625 C-13.17940324 20.06258902 -12.47604766 12.96281886 -11.84375 6.46875 C-9.82149391 0.77683896 -5.61376327 -0.37425088 0 0 Z " fill="#73577D" transform="translate(155.84375,94.53125)"/>
<path d="M0 0 C0.66 0 1.32 0 2 0 C3.34315504 3.91336793 4.67280672 7.83119282 6 11.75 C6.3815625 12.86117187 6.763125 13.97234375 7.15625 15.1171875 C7.5171875 16.18710938 7.878125 17.25703125 8.25 18.359375 C8.75273437 19.83615723 8.75273437 19.83615723 9.265625 21.34277344 C10 24 10 24 10 28 C3.73 28 -2.54 28 -9 28 C-6.57711594 18.44306841 -3.35433983 9.2597148 0 0 Z " fill="#AF85BF" transform="translate(223,179)"/>
<path d="M0 0 C1.37865234 0.00483398 1.37865234 0.00483398 2.78515625 0.00976562 C3.69652344 -0.00634766 4.60789062 -0.02246094 5.546875 -0.0390625 C6.42730469 -0.03970703 7.30773437 -0.04035156 8.21484375 -0.04101562 C9.42116455 -0.04548706 9.42116455 -0.04548706 10.65185547 -0.05004883 C13.41489905 0.40547998 14.81689341 1.51020076 16.91015625 3.32226562 C16.71752651 6.789601 16.10876472 8.11814025 13.66015625 10.63476562 C8.65146711 13.61323368 2.48833049 13.0151187 -3.08984375 12.32226562 C-6.07254216 11.36908732 -6.89581103 10.70435829 -9.08984375 8.32226562 C-9.58984375 5.19726562 -9.58984375 5.19726562 -9.08984375 2.32226562 C-6.22118276 -0.54639537 -3.92334279 0.03168632 0 0 Z " fill="#B688CA" transform="translate(283.08984375,235.677734375)"/>
<path d="M0 0 C2.93052231 1.99524923 4.64521503 3.42836485 5.4453125 6.97265625 C5.63099028 10.28390994 5.21285614 12.62981541 3.5625 15.5 C-0.24366962 17.72800173 -3.69940765 17.77378082 -8 17 C-10.0625 15.5625 -10.0625 15.5625 -11 13 C-11.62304044 8.64670464 -11.7644591 5.25371292 -9.4375 1.4375 C-6.00082919 -0.58925458 -3.92582814 -0.6198676 0 0 Z " fill="#AB81BB" transform="translate(290,190)"/>
<path d="M0 0 C0.4390692 8.63502756 0.4390692 8.63502756 -3 13 C-5.22890995 14.11445498 -6.53055106 14.16480286 -9 14.1875 C-10.051875 14.20876953 -10.051875 14.20876953 -11.125 14.23046875 C-13 14 -13 14 -15 12 C-15.25 8.5 -15.25 8.5 -15 5 C-12.56158876 2.56158876 -10.81433885 2.23847249 -7.5 1.375 C-6.5203125 1.11460938 -5.540625 0.85421875 -4.53125 0.5859375 C-2 0 -2 0 0 0 Z " fill="#7B5F85" transform="translate(352,109)"/>
<path d="M0 0 C7.59 0 15.18 0 23 0 C18.9386042 4.0613958 17.30664418 4.17363564 11.6875 4.25 C10.55699219 4.27578125 9.42648437 4.3015625 8.26171875 4.328125 C4.71216495 3.97104414 2.8413808 3.11104464 0 1 C0 0.67 0 0.34 0 0 Z " fill="#915AFF" transform="translate(275,244)"/>
<path d="M0 0 C0.66 0 1.32 0 2 0 C2 15.51 2 31.02 2 47 C1.67 47 1.34 47 1 47 C0.97494385 45.77369873 0.9498877 44.54739746 0.92407227 43.28393555 C0.82996946 38.7384173 0.72975567 34.19305083 0.62768555 29.64770508 C0.58434759 27.67964221 0.54267168 25.71154202 0.50268555 23.7434082 C0.44495555 20.9160639 0.38126884 18.08890729 0.31640625 15.26171875 C0.29969376 14.38037766 0.28298126 13.49903656 0.26576233 12.59098816 C0.24581711 11.77036392 0.22587189 10.94973969 0.20532227 10.10424805 C0.18977798 9.38254929 0.1742337 8.66085052 0.15821838 7.9172821 C0.05804743 5.77891856 0.05804743 5.77891856 -1 3 C-0.67 2.01 -0.34 1.02 0 0 Z " fill="#A987B6" transform="translate(165,188)"/>
<path d="M0 0 C0.66 0 1.32 0 2 0 C2 5.61 2 11.22 2 17 C1.67 17 1.34 17 1 17 C0.93941406 16.24074219 0.87882813 15.48148438 0.81640625 14.69921875 C0.73261719 13.70535156 0.64882812 12.71148437 0.5625 11.6875 C0.48128906 10.70136719 0.40007812 9.71523437 0.31640625 8.69921875 C0.08187441 5.90624401 0.08187441 5.90624401 -1 3 C-0.67 2.01 -0.34 1.02 0 0 Z " fill="#A382B0" transform="translate(165,188)"/>
<path d="M0 0 C0.66 0.33 1.32 0.66 2 1 C-0.31 3.31 -2.62 5.62 -5 8 C-5 5 -5 5 -2.5 2.3125 C-1.675 1.549375 -0.85 0.78625 0 0 Z " fill="#E4D7E9" transform="translate(273,183)"/>
</svg>
